PathFileType	4	(X/Y/Z)	subject01_walk1.trc
DataRate	CameraRate	NumFrames	NumMarkers	Units	OrigDataRate	OrigDataStartFrame	OrigNumFrames
60.00	60.00	       6	41	mm	60.00	133	       151
Frame#	Time	R.ASIS			L.ASIS			V.Sacral			R.Thigh.Upper			R.Thigh.Front			R.Thigh.Rear			L.Thigh.Upper			L.Thigh.Front			L.Thigh.Rear			R.Shank.Upper			R.Shank.Front			R.Shank.Rear			L.Shank.Upper			L.Shank.Front			L.Shank.Rear			R.Heel			R.Midfoot.Sup			R.Midfoot.Lat			R.Toe.Tip			L.Heel			L.Midfoot.Sup			L.Midfoot.Lat			L.Toe.Tip			Sternum			R.Acromium			L.Acromium			R.Bicep			L.Bicep			R.Elbow			L.Elbow			R.Wrist.Med			R.Wrist.Lat			L.Wrist.Med			L.Wrist.Lat			R.Toe.Lat			R.Toe.Med			L.Toe.Lat			L.Toe.Med			R.Temple			L.Temple			Top.Head			
		X1	Y1	Z1	X2	Y2	Z2	X3	Y3	Z3	X4	Y4	Z4	X5	Y5	Z5	X6	Y6	Z6	X7	Y7	Z7	X8	Y8	Z8	X9	Y9	Z9	X10	Y10	Z10	X11	Y11	Z11	X12	Y12	Z12	X13	Y13	Z13	X14	Y14	Z14	X15	Y15	Z15	X16	Y16	Z16	X17	Y17	Z17	X18	Y18	Z18	X19	Y19	Z19	X20	Y20	Z20	X21	Y21	Z21	X22	Y22	Z22	X23	Y23	Z23	X24	Y24	Z24	X25	Y25	Z25	X26	Y26	Z26	X27	Y27	Z27	X28	Y28	Z28	X29	Y29	Z29	X30	Y30	Z30	X31	Y31	Z31	X32	Y32	Z32	X33	Y33	Z33	X34	Y34	Z34	X35	Y35	Z35	X36	Y36	Z36	X37	Y37	Z37	X38	Y38	Z38	X39	Y39	Z39	X40	Y40	Z40	X41	Y41	Z41	

133	2.200000	1619.061040	1081.055910	1174.393070	1619.875850	1072.573000	914.524830	1421.073490	1071.658200	1051.206150	1599.013000	755.411740	1214.381670	1660.986450	699.982480	1117.791470	1597.873170	633.057680	1200.702580	1648.857480	774.388610	848.603850	1755.523250	768.043820	897.762240	1690.588620	672.173520	853.151290	1533.104310	459.206540	1183.611830	1608.161250	420.028840	1128.417970	1541.272580	371.966550	1186.958240	1666.838620	493.399170	851.694150	1676.781130	422.947420	903.833150	1623.136470	472.003450	848.747340	1440.207950	71.127340	1093.512360	1584.917180	78.907780	1061.596060	1575.642580	63.236360	1168.688800	1728.521000	48.728890	1104.979290	1375.340910	253.116760	953.190880	1507.613980	148.775710	969.465130	1484.849060	151.661160	874.309510	1577.750180	60.733600	936.116130	1643.198850	1392.980100	1039.059470	1545.516420	1472.583370	1255.081730	1560.306090	1506.439700	836.019530	1575.924930	1268.378910	1296.058440	1567.971740	1268.293700	796.282180	1545.432250	1160.889770	1324.465760	1510.820560	1177.357670	758.017590	1723.118100	958.984190	1300.239470	1687.866150	935.659480	1350.628690	1607.426880	943.598140	789.575350	1562.417910	937.648930	730.055910	1664.330320	38.732830	1183.977390	1670.991520	46.833410	1073.571210	1515.426820	92.238130	863.345150	1541.340520	90.325440	963.620590	1684.716310	1637.616700	1131.600450	1692.871640	1646.683960	992.806060	1636.283690	1808.024290	1073.688270	
134	2.217000	1616.760860	1081.131230	1175.927510	1619.190120	1074.066280	916.153240	1418.864200	1072.655270	1051.510740	1589.994450	755.190860	1214.539540	1651.504150	698.201050	1118.727850	1585.980830	633.210570	1201.098250	1654.299560	777.570070	849.531450	1759.619750	773.120000	900.911690	1698.309630	676.130920	854.617540	1517.857360	459.233760	1183.557860	1591.344730	419.164640	1129.124650	1525.290160	371.972810	1186.401870	1681.122990	494.356050	853.607880	1694.891420	423.880550	905.607180	1638.691470	469.793580	849.958480	1421.702300	71.183400	1093.219580	1566.069270	78.888910	1061.470200	1556.496460	63.292520	1168.476000	1709.433110	48.420930	1105.022850	1406.913240	231.074860	953.905990	1547.137270	138.328920	969.597030	1525.408810	140.691740	874.312790	1625.049870	57.232770	936.109370	1641.496580	1393.888060	1038.739480	1544.896850	1473.943360	1254.843810	1558.805300	1506.132080	836.364230	1576.186890	1270.019650	1296.848720	1562.503720	1268.551510	795.685710	1547.941650	1162.450440	1326.015630	1503.448000	1177.844240	757.456500	1731.644100	965.806640	1299.359190	1697.039670	941.246950	1349.486970	1603.158260	944.295530	789.956790	1555.626460	938.880370	731.277130	1644.591430	38.978160	1183.885830	1651.903080	46.674720	1073.492500	1560.613040	84.023310	863.309160	1586.336850	83.347150	963.603240	1683.866460	1638.701420	1131.365540	1691.614380	1647.443970	992.118300	1633.730900	1808.769530	1072.090100	
135	2.233000	1613.697570	1080.189330	1177.330260	1617.060790	1074.131590	917.239720	1416.716640	1073.188840	1051.767160	1582.217160	755.370300	1215.726460	1642.247500	695.876220	1119.606110	1573.844060	632.349980	1201.376390	1658.328370	779.944890	850.350890	1761.478150	777.557560	903.679840	1702.234740	678.955810	856.975860	1502.113890	459.051450	1183.598540	1575.805110	419.783080	1128.710560	1507.876010	372.618350	1186.508540	1691.041440	493.910220	857.338780	1712.845890	425.577330	906.371080	1652.774050	466.322240	851.225080	1403.078520	71.326520	1092.869830	1547.015560	78.721580	1061.346150	1537.351990	63.270910	1168.235580	1690.284790	48.233500	1105.013300	1440.848050	207.404850	954.560470	1588.771850	127.676610	969.023490	1566.921450	129.256330	873.858960	1673.681150	54.445400	934.830550	1640.215640	1393.233640	1038.871800	1544.703980	1474.467900	1254.618390	1557.247860	1504.983520	835.304240	1577.848210	1270.981570	1296.962250	1556.971010	1267.922610	795.034760	1550.063780	1163.403080	1327.352200	1496.426790	1177.794190	757.600690	1738.816770	973.082090	1298.101470	1705.983090	946.621640	1348.448150	1598.324400	945.576840	790.074420	1549.962650	937.793400	733.321690	1625.332950	38.622300	1183.592440	1633.119450	46.604110	1073.572080	1607.017460	76.216910	862.411830	1632.858460	76.582120	962.605060	1683.049680	1639.842530	1130.551650	1689.725280	1647.877080	990.472490	1631.707210	1809.149170	1070.956630	
136	2.250000	1611.801940	1079.476200	1178.458920	1615.337340	1073.000980	918.111770	1414.667790	1073.263670	1051.912140	1574.059200	755.026790	1215.073140	1632.735720	694.331970	1120.765450	1561.873660	631.591130	1201.334930	1660.504390	781.253780	851.302020	1762.072330	779.741270	907.233990	1705.774410	680.346500	858.069890	1487.928070	459.761780	1183.518460	1560.206850	418.597840	1129.181290	1491.895630	372.501920	1186.603100	1698.640140	492.222810	860.515530	1727.687740	425.212590	907.759670	1665.077450	461.549410	852.893550	1384.200500	71.597270	1092.505990	1527.744810	78.419820	1061.266840	1518.268740	63.185680	1168.015490	1671.114500	48.118590	1104.937440	1477.163240	182.968640	955.287010	1632.236940	117.583630	967.818930	1609.173340	118.061790	872.851850	1723.195430	53.020490	932.265720	1639.255490	1392.603880	1039.150800	1544.330080	1474.470090	1254.451000	1555.439270	1503.494630	834.877670	1578.347530	1271.561520	1297.724640	1552.346980	1266.413700	794.659380	1551.819950	1163.733400	1328.459010	1490.807430	1177.195560	757.798360	1745.838620	978.679320	1296.410100	1714.013000	951.860350	1346.872620	1594.338620	945.769780	790.723740	1546.326480	937.181270	732.960820	1606.535580	37.875600	1183.364470	1614.589900	46.567090	1073.765170	1654.226140	69.490450	860.616300	1680.460880	70.667760	960.554800	1681.984380	1639.970700	1129.270320	1689.406560	1647.883910	990.262230	1629.169250	1808.844730	1069.394250	
137	2.267000	1608.970400	1078.247560	1178.962910	1613.928470	1072.402470	918.510040	1412.715120	1072.897220	1051.883950	1564.237730	753.132080	1215.066670	1624.098330	692.362610	1120.160740	1552.125120	631.228520	1201.224270	1660.677670	781.283260	852.502090	1761.490540	780.814450	909.083630	1705.949040	680.535280	859.623990	1472.968570	459.565370	1183.036180	1545.127990	417.789150	1129.211460	1476.675960	372.426240	1186.651090	1707.107670	489.949490	862.297260	1742.338070	424.996400	908.779260	1675.502620	455.519200	855.059600	1365.133670	71.937800	1092.106410	1508.319430	78.023660	1061.246340	1499.286650	63.106270	1167.839540	1651.938780	47.954630	1104.851950	1515.660580	158.819340	956.201260	1676.933530	108.899020	966.138450	1651.910460	107.936740	871.406010	1772.978700	53.651260	928.661510	1637.854860	1390.776370	1038.329000	1543.594970	1473.911740	1253.923810	1554.575320	1501.809330	834.468660	1578.344790	1271.319210	1298.266110	1548.521670	1265.304320	794.505330	1553.209960	1163.479610	1329.308560	1485.888090	1176.368410	757.530320	1751.990420	985.206360	1295.423280	1722.719850	956.013980	1345.483580	1590.916560	945.535950	791.082200	1542.519410	936.525760	734.992680	1587.398740	37.810010	1183.048430	1596.093690	46.450370	1073.906070	1701.715580	64.504960	858.069000	1728.659850	66.404820	957.629860	1681.409850	1640.011840	1128.603320	1688.502500	1647.369630	988.555170	1626.728760	1808.041020	1068.052140	
138	2.283000	1606.036010	1076.087650	1179.287320	1612.331050	1070.156010	919.170440	1410.887360	1072.120850	1051.640670	1555.599850	751.970700	1215.252180	1615.427190	690.041750	1120.367030	1541.563900	630.498900	1201.007720	1659.001280	779.914180	853.945510	1759.105040	780.010860	911.837070	1704.040280	679.599730	861.357670	1459.368650	459.547850	1183.493880	1530.558720	416.752530	1129.246860	1462.112580	372.943420	1186.268080	1711.685910	486.027560	864.910660	1755.039610	424.411930	909.516650	1684.235470	448.422910	857.524060	1345.989620	72.307090	1091.664310	1488.875090	77.597530	1061.251260	1480.382200	63.097320	1167.688890	1632.769040	47.672390	1104.830790	1555.957340	136.125470	957.293260	1722.046080	102.429850	964.204460	1694.844730	99.782760	869.820650	1822.207150	56.988930	924.501240	1637.915040	1389.445560	1037.851110	1540.424870	1472.676760	1253.812450	1554.082640	1499.135380	834.137590	1578.251340	1270.815800	1298.329470	1545.341740	1262.676760	793.945240	1554.239200	1162.734500	1329.874730	1482.203800	1174.588500	758.103200	1757.357060	989.717410	1292.895080	1728.990910	959.891600	1343.792570	1588.949220	945.173280	791.029940	1539.991580	935.036990	735.129700	1567.643680	38.634430	1183.024370	1577.311650	46.140830	1073.823180	1748.888370	61.915600	855.133450	1776.824280	64.686270	954.266830	1680.237300	1638.855350	1126.913110	1687.445560	1646.591670	987.791340	1625.369630	1807.073360	1065.964840	
